<svg id="floor1" xmlns="http://www.w3.org/2000/svg" viewBox="0 0 1920 1080">
  <title>annotations</title>
  <path id="room100" d="M295.58,110.83,294,10.83h179.6L446.93,39.54s35.23,19.14,63.78-8.61c0,0,5.72,20.09,64.74,15.31l-23.8-35.41H723s-49.5-1.91-85.68,53.59-9.52,144.49-9.52,144.49,20,82.3,95.2,86.12h85.67s22.85-43.06,55.21-41.14L857.22,295h198l-10.47-44s46.65,15.31,53.31,44h90.43v22l-38.07-11.48s7.61,40.19,38.07,44V455.79H1140.9s-14.28,38.28-53.31,41.15l5.71-40.19-107.57-2.87s-3.81,33.49-52.36,43.06l8.57-44-127.56,2.87,4.76,41.15s-35.22-5.74-49.5-43.06L722,456.75l-1.9,279.42-427.42,6.7.95-51.68-40,12.44s-.95-47.84,40-56.45c0,0-27.6,2.87-40.93-52.63l40.93,9.56V155.33l-42.83,11.48s18.08-62.2,44.74-56.46"/>
  <path id="room101" d="M721.09,9.88V23.27s17.14,8.61,19,25.84l-19-4.79V59.63H954.32V9.88Z"/>
  <path id="room151" d="M720.62,293.6V60.11H953.84V293.6H855.79l9-42.58s-44.74,7.65-53.3,45Z"/>
  <path id="room155" d="M954.79,10.35V295.51l100.43-.48L1044.75,252S1095.2,266.33,1100,295h88.53V9.88Z"/>
  <path id="room150" d="M1189,295.51h121.85V457.23H1189V351s-22.85,2.87-36.17-44l35.69,8.14Z"/>
  <path id="room105" d="M295.58,110.83,294,10.83h179.6L446.93,39.54s35.23,19.14,63.78-8.61c0,0,5.72,20.09,64.74,15.31l-23.8-35.41H723s-49.5-1.91-85.68,53.59-9.52,144.49-9.52,144.49,20,82.3,95.2,86.12h85.67s22.85-43.06,55.21-41.14L857.22,295h198l-10.47-44s46.65,15.31,53.31,44h90.43v22l-38.07-11.48s7.61,40.19,38.07,44V455.79H1140.9s-14.28,38.28-53.31,41.15l5.71-40.19-107.57-2.87s-3.81,33.49-52.36,43.06l8.57-44-127.56,2.87,4.76,41.15s-35.22-5.74-49.5-43.06L722,456.75l-1.9,279.42-427.42,6.7.95-51.68-40,12.44s-.95-47.84,40-56.45c0,0-27.6,2.87-40.93-52.63l40.93,9.56V155.33l-42.83,11.48s18.08-62.2,44.74-56.46"/>
  <path id="room152" d="M814.38,455.79l4.76,41.15s-34.9-5.7-49.3-42.58h-8.13L722,456.75l-1.9,279.42h-.48v6.21H880.54v-288h-2.38Z"/>
  <path id="room154" d="M1003.66,454.36h-18c-.68,4.1-7.14,33.68-52.29,42.58l8.29-42.58H880.54V740.47h159.93V455.34Z"/>
  <path id="room156B" d="M1039.51,740.47h150.41V598.85h-60s-.48,18.66-35.7,27.27l6.66-27.75H1040Z"/>
  <path id="room156" d="M1039.51,455.32V598.85h62.83l-7.61,25.84s27.6-1,39-27.75l55.21,1.91V455.32l-49,.47s-1.9,30.63-53.3,41.15l9.52-41.15Z"/>
  <path id="room130" d="M293.67,691.19l-40,12.44s-.95-47.84,40-56.45c0,0-27.6,2.87-40.93-52.63l40.93,9.56V458.19H9.52V740.47H292.76Z"/>
  <path id="room110" d="M293.67,155.33l-42.83,11.48s17.44-60,43.31-56.7V21L294,10.83h.16V9.88H10V455.79H293.67Z"/>
  <polyline id="elevator" points="404.57 329.96 404.57 455.32 617.81 455.32 617.81 329.96"/>
</svg>
