<svg xmlns="http://www.w3.org/2000/svg" viewBox="0 0 1336 759.25">
  <title>annotations</title>
  <g id="floor2">
    <path id="room200" d="M205.88,234.82v54.24s-23.41-5.17-41.21,49.07l41.21-8.53v82.65s-23.72-1.81-41.21,49.07l41.21-7v68.44l73.67-1s.94,26.34,48.7,40.81l-8.12-41.07,84.28.52-.31,223.66h54.63v-109h46.51v109h26.22V637.47h47.45V745.68H626V522.28l73.05-.26s-4.37,22.73,46.82,39.51L738.42,522l80.54.51V459.26l69.92.26S885.13,483,936.33,499l-7.81-39.77L1089.6,459l-8.74,40s47.13-10.33,49-39.26h71.79V446.86s24.66-2.58,36.52-43.39l-36.21,6.2.32-111.83-88.66.26,6.25-39.78s-43.08,10.85-47.76,40.29H927.59s-2.5-30-49-39.26l8.12,38.75-82.41-.26-.32-63H726.25s-5.93-28.15-49.32-37.45l8.42,38.22H513.67l7.49-38.22s-39.33,5.42-48.7,38.48l-143.28-.51s0-24.28-48.38-39l8.11,39Z"/>
    <path id="room210" d="M205.26,329.73l-40.59,8.4c16.09-49,36.76-49.52,40.59-49.16V10.64H8.6V378.81H205.26Z"/>
    <path id="room220" d="M205.88,522.79V454.35l-41.21,7c17.49-50.88,41.21-49.07,41.21-49.07V378.81H8.6V747.49H206.19V522.79Z"/>
    <path id="room232" d="M328.25,562.57c-45.05-13.65-48.44-37.85-48.68-40.55H261.13l-54.94.77V745.94h197.6V522H320.23Z"/>
    <polygon id="room234" points="531.46 637.47 531.46 745.68 505.24 745.68 505.24 636.69 458.73 636.69 458.73 745.68 456.23 745.68 456.23 747.49 578.91 747.49 578.91 745.68 578.91 637.47 531.46 637.47"/>
    <rect id="room250" x="1201.66" y="296.55" width="123.61" height="162.71"/>
    <rect id="elevator" x="409.41" y="331.41" width="212.58" height="127.07"/>
    <path id="room231" d="M280.8,196.34c43.27,13.16,47.84,34,48.32,38.22h75.6V11.41H205.26V234.56h83.49Z"/>
    <path id="room233" d="M472.46,235.85c9.37-33.06,48.7-38.48,48.7-38.48l-7.49,38.22h91.46V11.41H404.72v224.2Z"/>
    <path id="room235" d="M676.93,197.37c43.39,9.3,49.32,37.45,49.32,37.45H804v.52h.62V10.64H604.19v224.7H685.3Z"/>
    <path id="room241" d="M804,234.82l.32,63,82.41.26-8.12-38.75c43,8.6,48.37,34.8,48.94,38.75h74.67V11.41H803.66V234.82Z"/>
    <path id="room247" d="M1119.88,258.32l-6.12,39h88.84V11.41H1002.19V297.32h70.19C1078.1,268.86,1119.88,258.32,1119.88,258.32Z"/>
    <path id="room248" d="M1201.66,459.77h-71.79c-1.88,28.93-49,39.26-49,39.26l8.68-39.77h-79.85V745.94h193.85V459.26h-1.88Z"/>
    <path id="room244" d="M936.33,499c-51.2-16-47.45-39.51-47.45-39.51L819,459.26v63.27h-1.25V745.94h192.91V459.26h-82.1Z"/>
    <path id="room236" d="M738.42,522l7.49,39.51C694.72,544.75,699.09,522,699.09,522l-73.05.26v223.4h-.31v1H818.64V522.53Z"/>
  </g>
</svg>
